<?xml version="1.0" encoding="utf-8"?>
<!-- Generator: Adobe Illustrator 15.0.0, SVG Export Plug-In . SVG Version: 6.00 Build 0)  -->
<!DOCTYPE svg PUBLIC "-//W3C//DTD SVG 1.1//EN" "http://www.w3.org/Graphics/SVG/1.1/DTD/svg11.dtd">
<svg version="1.1" xmlns="http://www.w3.org/2000/svg" xmlns:xlink="http://www.w3.org/1999/xlink" x="0px" y="0px" width="190px"
	 height="190.175px" viewBox="0 0 190 190.175" enable-background="new 0 0 190 190.175" xml:space="preserve">
<g id="Layer_2">
</g>
<g id="Layer_3">
	<g>
		<g>
			<g>
				<path fill="#EBF4FF" d="M0,95.175c0,0.077,0.003,0.153,0.003,0.23C0.067,68.227,11.391,43.712,29.528,26.34
					C11.339,43.646,0,68.086,0,95.175z"/>
			</g>
		</g>
		<g>
			<g>
				<path fill="#EBF4FF" d="M160.353,26.229c18.207,17.379,29.58,41.939,29.644,69.176c0-0.077,0.003-0.153,0.003-0.23
					C190,68.028,178.611,43.542,160.353,26.229z"/>
			</g>
		</g>
		<g>
			<g>
				<path fill="#FFFFFF" d="M53.961,103.664l-25.26-0.068c-2.358,0-3.443,1.638-4.27,3.986l-12.439,33.816
					c5.954,10.669,13.904,20.07,23.347,27.701l22.063-61.518C58.021,105.215,56.319,103.664,53.961,103.664z"/>
			</g>
		</g>
		<g>
			<g>
				<path fill="#EBF4FF" d="M0.032,97.663c-0.001-0.092-0.002-0.184-0.004-0.275C0.03,97.479,0.03,97.571,0.032,97.663z"/>
			</g>
		</g>
		<g>
			<g>
				<path fill="#EBF4FF" d="M189.938,98.433c0.024-0.723,0.04-1.447,0.048-2.174C189.982,96.986,189.959,97.709,189.938,98.433z"/>
			</g>
		</g>
		<g>
			<g>
				<path fill="#FFFFFF" d="M154.911,61.318l-25.261-0.067c-2.357,0-3.443,1.637-4.269,3.985L79.869,188.97
					c4.928,0.789,9.981,1.205,15.131,1.205c6.593,0,13.029-0.673,19.243-1.951l44.109-122.987
					C158.971,62.871,157.269,61.318,154.911,61.318z"/>
			</g>
		</g>
		<g>
			<g>
				<path fill="#FFFFFF" d="M103.447,83.735L78.186,83.67c-2.358,0-3.442,1.636-4.269,3.984l-31.799,86.45
					c8.769,5.887,18.571,10.353,29.08,13.063l35.69-99.514C107.506,85.289,105.804,83.735,103.447,83.735z"/>
			</g>
		</g>
		<path fill="#4C7ABC" d="M0,95.637c0,0.586,0.018,1.168,0.028,1.751c-0.015-0.659-0.023-1.32-0.025-1.982
			C0.003,95.482,0,95.56,0,95.637z"/>
		<path fill="#4C7ABC" d="M160.353,26.229C143.324,9.974,120.319,0,94.999,0c-25.378,0-48.43,10.019-65.471,26.34
			C46.569,10.126,69.622,0.175,95,0.175C120.32,0.175,143.324,10.083,160.353,26.229z"/>
		<path fill="#4C7ABC" d="M189.938,98.433c-1.498,44.418-33.482,81.106-75.695,89.791"/>
		<path fill="#4C7ABC" d="M190,95.637c0-0.077-0.003-0.154-0.003-0.231c0,0.285-0.008,0.568-0.011,0.854
			C189.988,96.051,190,95.845,190,95.637z"/>
		<path fill="#4C7ABC" d="M189.997,95.405c-0.064-27.237-11.438-51.797-29.644-69.176C143.324,10.083,120.32,0.175,95,0.175
			c-25.378,0-48.431,9.952-65.472,26.165C11.391,43.712,0.067,68.227,0.003,95.405c0.001,0.662,0.01,1.323,0.025,1.982
			c0.002,0.092,0.003,0.184,0.004,0.275c0.408,15.851,4.703,30.731,11.96,43.735l12.439-33.816c0.826-2.349,1.911-3.986,4.27-3.986
			l25.26,0.068c2.357,0,4.059,1.551,3.441,3.918L35.339,169.1c2.183,1.764,4.443,3.437,6.779,5.005l31.799-86.45
			c0.827-2.349,1.911-3.984,4.269-3.984l25.261,0.065c2.357,0,4.06,1.554,3.441,3.919l-35.69,99.514
			c2.84,0.732,5.734,1.332,8.671,1.802l45.513-123.733c0.826-2.349,1.911-3.985,4.269-3.985l25.261,0.067
			c2.358,0,4.06,1.553,3.441,3.918l-44.109,122.987c42.213-8.685,74.198-45.373,75.695-89.791c0.021-0.724,0.043-1.446,0.048-2.174
			C189.989,95.974,189.997,95.69,189.997,95.405z"/>
	</g>
</g>
</svg>
