<?xml version="1.0" encoding="utf-8"?>
<!-- Generator: Adobe Illustrator 15.0.0, SVG Export Plug-In . SVG Version: 6.00 Build 0)  -->
<!DOCTYPE svg PUBLIC "-//W3C//DTD SVG 1.1//EN" "http://www.w3.org/Graphics/SVG/1.1/DTD/svg11.dtd">
<svg version="1.1" id="Capa_1" xmlns="http://www.w3.org/2000/svg" xmlns:xlink="http://www.w3.org/1999/xlink" x="0px" y="0px"
	 width="800px" height="600px" viewBox="0 0 800 600" enable-background="new 0 0 800 600" xml:space="preserve">
<g>
	<path fill="#257A25" d="M651.794,332.797c-26.571,0-48.113,21.541-48.113,48.113v122.863H196.321V380.91
		c0-26.572-21.542-48.113-48.113-48.113c-26.571,0-48.113,21.541-48.113,48.113v170.977c0,26.571,21.542,48.113,48.113,48.113
		h503.586c26.571,0,48.113-21.542,48.113-48.113V380.91C699.907,354.337,678.365,332.797,651.794,332.797z"/>
	<path fill="#257A25" d="M501.821,173.668l-53.707,53.708V48.113C448.114,21.542,426.572,0,400.001,0
		c-26.572,0-48.113,21.542-48.113,48.113v179.262l-53.708-53.708c-9.393-9.393-21.707-14.092-34.021-14.092
		c-12.313,0-24.626,4.699-34.021,14.092c-18.789,18.792-18.789,49.254,0,68.042L365.98,377.552
		c18.788,18.791,49.252,18.791,68.042,0L569.863,241.71c18.791-18.788,18.791-49.25,0-68.042
		C551.075,154.876,520.609,154.876,501.821,173.668z"/>
</g>
</svg>
