<?xml version="1.0" encoding="utf-8"?>
<!-- Generator: Adobe Illustrator 15.0.0, SVG Export Plug-In . SVG Version: 6.00 Build 0)  -->
<!DOCTYPE svg PUBLIC "-//W3C//DTD SVG 1.1//EN" "http://www.w3.org/Graphics/SVG/1.1/DTD/svg11.dtd">
<svg version="1.1" id="Layer_1" xmlns="http://www.w3.org/2000/svg" xmlns:xlink="http://www.w3.org/1999/xlink" x="0px" y="0px"
	 width="117.403px" height="114.477px" viewBox="36.298 37.849 117.403 114.477"
	 enable-background="new 36.298 37.849 117.403 114.477" xml:space="preserve">
<g id="Layer_2">
</g>
<g id="Layer_3">
	<g>
		<g>
			<g>
				<path fill="#EBF4FF" d="M36.298,95.14c0,0.046,0.002,0.092,0.002,0.139c0.04-16.36,7.037-31.117,18.244-41.574
					C43.305,64.122,36.298,78.833,36.298,95.14z"/>
			</g>
		</g>
		<g>
			<g>
				<path fill="#EBF4FF" d="M135.383,53.638c11.25,10.461,18.277,25.246,18.316,41.641c0-0.046,0.002-0.092,0.002-0.139
					C153.701,78.799,146.664,64.06,135.383,53.638z"/>
			</g>
		</g>
		<g>
			<g>
				<path fill="#FFFFFF" d="M69.642,100.25l-15.608-0.041c-1.457,0-2.127,0.985-2.638,2.398l-7.687,20.356
					c3.679,6.422,8.591,12.082,14.426,16.675l13.633-37.031C72.15,101.183,71.099,100.25,69.642,100.25z"/>
			</g>
		</g>
		<g>
			<g>
				<path fill="#EBF4FF" d="M36.318,96.638c-0.001-0.056-0.001-0.111-0.002-0.166C36.317,96.527,36.317,96.583,36.318,96.638z"/>
			</g>
		</g>
		<g>
			<g>
				<path fill="#EBF4FF" d="M153.663,97.102c0.015-0.436,0.025-0.872,0.03-1.31C153.69,96.23,153.676,96.666,153.663,97.102z"/>
			</g>
		</g>
		<g>
			<g>
				<path fill="#FFFFFF" d="M132.02,74.76l-15.608-0.041c-1.457,0-2.128,0.986-2.639,2.399L85.65,151.601
					c3.045,0.475,6.167,0.725,9.35,0.725c4.073,0,8.051-0.405,11.891-1.174l27.255-74.033
					C134.528,75.695,133.478,74.76,132.02,74.76z"/>
			</g>
		</g>
		<g>
			<g>
				<path fill="#FFFFFF" d="M100.22,88.254L84.61,88.215c-1.457,0-2.126,0.985-2.638,2.398l-19.649,52.039
					c5.418,3.544,11.475,6.231,17.969,7.863l22.053-59.903C102.728,89.189,101.676,88.254,100.22,88.254z"/>
			</g>
		</g>
		<path fill="#4C7ABC" d="M36.298,95.418c0,0.353,0.011,0.703,0.018,1.054c-0.009-0.396-0.015-0.795-0.016-1.193
			C36.3,95.325,36.298,95.372,36.298,95.418z"/>
		<path fill="#4C7ABC" d="M135.383,53.638C124.86,43.853,110.645,37.849,95,37.849c-15.682,0-29.925,6.031-40.456,15.855
			c10.53-9.76,24.775-15.75,40.456-15.75C110.646,37.954,124.86,43.918,135.383,53.638z"/>
		<path fill="#4C7ABC" d="M153.663,97.102c-0.926,26.737-20.688,48.821-46.772,54.05"/>
		<path fill="#4C7ABC" d="M153.701,95.418c0-0.047-0.002-0.093-0.002-0.139c0,0.171-0.005,0.342-0.006,0.513
			C153.694,95.667,153.701,95.544,153.701,95.418z"/>
		<path fill="#939393" d="M153.699,95.279c-0.039-16.396-7.067-31.18-18.316-41.641C124.86,43.918,110.646,37.954,95,37.954
			c-15.681,0-29.926,5.991-40.456,15.75C43.337,64.162,36.34,78.918,36.3,95.279c0,0.398,0.006,0.796,0.016,1.193
			c0.001,0.055,0.001,0.11,0.002,0.165c0.252,9.542,2.906,18.499,7.39,26.327l7.687-20.356c0.51-1.414,1.18-2.399,2.638-2.399
			l15.608,0.042c1.456,0,2.508,0.933,2.126,2.357L58.135,139.64c1.349,1.063,2.746,2.068,4.189,3.013l19.649-52.039
			c0.511-1.414,1.181-2.398,2.638-2.398l15.609,0.039c1.456,0,2.509,0.936,2.126,2.359l-22.053,59.903
			c1.755,0.44,3.543,0.802,5.358,1.084l28.123-74.481c0.511-1.414,1.181-2.399,2.638-2.399l15.609,0.04
			c1.457,0,2.509,0.935,2.126,2.359l-27.256,74.032c26.085-5.228,45.848-27.313,46.773-54.05c0.013-0.436,0.026-0.871,0.029-1.31
			C153.694,95.622,153.699,95.45,153.699,95.279z"/>
	</g>
</g>
<g>
	<path fill="#F2BB4C" d="M99.341,113.416c0.301,1.029,0.717,2.021,1.244,2.953l-1.502,1.894c-0.488,0.618-0.434,1.501,0.117,2.059
		l2.585,2.585c0.559,0.558,1.441,0.606,2.058,0.116l1.883-1.489c0.968,0.558,1.996,0.994,3.068,1.299l0.282,2.422
		c0.092,0.782,0.754,1.371,1.537,1.371h3.658c0.784,0,1.445-0.589,1.538-1.371l0.269-2.336c1.151-0.299,2.255-0.748,3.291-1.328
		l1.819,1.438c0.618,0.49,1.501,0.435,2.059-0.115l2.585-2.587c0.558-0.556,0.607-1.438,0.116-2.058l-1.416-1.795
		c0.589-1.018,1.049-2.103,1.354-3.235l2.181-0.252c0.784-0.09,1.373-0.753,1.373-1.536v-3.658c0-0.785-0.589-1.445-1.373-1.537
		l-2.149-0.252c-0.294-1.121-0.736-2.192-1.3-3.197l1.324-1.673c0.49-0.619,0.435-1.501-0.116-2.059l-2.579-2.579
		c-0.558-0.558-1.44-0.608-2.059-0.116l-1.623,1.287c-1.054-0.619-2.183-1.091-3.363-1.411l-0.246-2.1
		c-0.092-0.785-0.754-1.373-1.538-1.373h-3.658c-0.783,0-1.444,0.588-1.537,1.373l-0.244,2.1c-1.214,0.325-2.371,0.815-3.45,1.459
		l-1.686-1.335c-0.616-0.492-1.499-0.435-2.058,0.116L99.2,99.081c-0.558,0.558-0.605,1.438-0.117,2.057l1.41,1.783
		c-0.563,1.018-0.993,2.103-1.274,3.229l-2.255,0.257c-0.785,0.093-1.372,0.754-1.372,1.538v3.658c0,0.783,0.587,1.445,1.372,1.536
		L99.341,113.416z M112.593,103.521c3.332,0,6.047,2.714,6.047,6.048c0,3.332-2.715,6.046-6.047,6.046
		c-3.333,0-6.048-2.714-6.048-6.046C106.545,106.235,109.26,103.521,112.593,103.521z"/>
	<path fill="#F2BB4C" d="M148.752,114.316l-1.931-1.629c-0.594-0.503-1.471-0.478-2.034,0.056l-1.067,0.998
		c-0.898-0.436-1.854-0.74-2.842-0.919l-0.301-1.472c-0.152-0.759-0.857-1.285-1.629-1.224l-2.518,0.214
		c-0.772,0.067-1.379,0.698-1.403,1.477l-0.048,1.495c-0.969,0.349-1.881,0.826-2.714,1.427l-1.274-0.846
		c-0.65-0.428-1.515-0.307-2.017,0.288l-1.63,1.942c-0.502,0.595-0.479,1.47,0.056,2.034l1.115,1.188
		c-0.386,0.87-0.662,1.783-0.821,2.72l-1.593,0.325c-0.76,0.153-1.287,0.857-1.227,1.63l0.215,2.518
		c0.067,0.771,0.699,1.378,1.477,1.403l1.723,0.055c0.313,0.821,0.722,1.6,1.219,2.329l-0.962,1.451
		c-0.429,0.648-0.307,1.513,0.289,2.016l1.93,1.63c0.594,0.502,1.469,0.478,2.033-0.056l1.263-1.183
		c0.826,0.386,1.695,0.674,2.591,0.846l0.349,1.728c0.154,0.761,0.858,1.287,1.63,1.226l2.519-0.215
		c0.771-0.066,1.378-0.698,1.402-1.476l0.056-1.691c0.919-0.325,1.788-0.766,2.592-1.312l1.391,0.919
		c0.649,0.43,1.513,0.307,2.015-0.287l1.63-1.93c0.503-0.596,0.478-1.471-0.055-2.034l-1.121-1.189
		c0.409-0.868,0.71-1.788,0.882-2.732l1.531-0.313c0.76-0.152,1.287-0.858,1.226-1.63l-0.215-2.518
		c-0.066-0.771-0.698-1.377-1.476-1.401l-1.539-0.05c-0.317-0.896-0.746-1.74-1.28-2.524l0.84-1.262
		C149.467,115.689,149.346,114.82,148.752,114.316z M139.262,128.872c-2.721,0.233-5.122-1.794-5.35-4.515
		c-0.233-2.72,1.796-5.121,4.517-5.348c2.719-0.233,5.12,1.795,5.348,4.515C144.009,126.245,141.981,128.646,139.262,128.872z"/>
	<path fill="#F2BB4C" d="M108.15,135.649c-0.772,0.079-1.366,0.729-1.373,1.508l-0.016,1.548c-0.014,0.779,0.562,1.44,1.334,1.54
		l1.14,0.146c0.189,0.691,0.459,1.353,0.809,1.978l-0.735,0.907c-0.49,0.607-0.454,1.477,0.092,2.034l1.084,1.108
		c0.546,0.559,1.415,0.62,2.034,0.143l0.913-0.706c0.644,0.38,1.323,0.681,2.034,0.89l0.122,1.176
		c0.079,0.771,0.729,1.365,1.508,1.372l1.55,0.018c0.778,0.014,1.439-0.563,1.538-1.335l0.14-1.114
		c0.773-0.19,1.508-0.479,2.206-0.859l0.857,0.693c0.607,0.49,1.477,0.453,2.034-0.093l1.109-1.084
		c0.558-0.545,0.618-1.415,0.141-2.034l-0.656-0.852c0.405-0.674,0.718-1.391,0.933-2.145l1.017-0.104
		c0.771-0.079,1.367-0.729,1.372-1.507l0.019-1.55c0.013-0.778-0.563-1.439-1.336-1.539l-0.992-0.128
		c-0.189-0.747-0.472-1.47-0.839-2.144l0.618-0.76c0.491-0.607,0.453-1.477-0.091-2.035l-1.086-1.107
		c-0.544-0.559-1.415-0.619-2.033-0.143l-0.741,0.57c-0.699-0.423-1.446-0.747-2.229-0.968l-0.1-0.962
		c-0.079-0.771-0.728-1.366-1.506-1.372l-1.551-0.019c-0.777-0.013-1.438,0.563-1.538,1.336l-0.121,0.956
		c-0.809,0.209-1.587,0.526-2.31,0.943l-0.768-0.625c-0.605-0.49-1.476-0.454-2.033,0.092l-1.115,1.091
		c-0.557,0.544-0.619,1.415-0.141,2.034l0.655,0.845c-0.38,0.675-0.68,1.392-0.876,2.145L108.15,135.649z M118.155,133.896
		c2.224,0.025,4.007,1.856,3.981,4.08c-0.024,2.225-1.855,4.007-4.079,3.982c-2.224-0.023-4.007-1.856-3.982-4.079
		C114.101,135.655,115.932,133.872,118.155,133.896z"/>
</g>
</svg>
