<?xml version="1.0" encoding="UTF-8" standalone="no"?>
<!-- Generator: Adobe Illustrator 15.0.0, SVG Export Plug-In . SVG Version: 6.00 Build 0)  -->

<svg
   xmlns:dc="http://purl.org/dc/elements/1.1/"
   xmlns:cc="http://creativecommons.org/ns#"
   xmlns:rdf="http://www.w3.org/1999/02/22-rdf-syntax-ns#"
   xmlns:svg="http://www.w3.org/2000/svg"
   xmlns="http://www.w3.org/2000/svg"
   xmlns:sodipodi="http://sodipodi.sourceforge.net/DTD/sodipodi-0.dtd"
   xmlns:inkscape="http://www.inkscape.org/namespaces/inkscape"
   version="1.1"
   id="Capa_1"
   x="0px"
   y="0px"
   width="800px"
   height="600px"
   viewBox="0 0 800 600"
   enable-background="new 0 0 800 600"
   xml:space="preserve"
   inkscape:version="0.91 r13725"
   sodipodi:docname="download15_5.svg"><metadata
     id="metadata13"><rdf:RDF><cc:Work
         rdf:about=""><dc:format>image/svg+xml</dc:format><dc:type
           rdf:resource="http://purl.org/dc/dcmitype/StillImage" /></cc:Work></rdf:RDF></metadata><defs
     id="defs11" /><sodipodi:namedview
     pagecolor="#ffffff"
     bordercolor="#666666"
     borderopacity="1"
     objecttolerance="10"
     gridtolerance="10"
     guidetolerance="10"
     inkscape:pageopacity="0"
     inkscape:pageshadow="2"
     inkscape:window-width="1366"
     inkscape:window-height="706"
     id="namedview9"
     showgrid="false"
     inkscape:zoom="0.36"
     inkscape:cx="400"
     inkscape:cy="300"
     inkscape:window-x="-8"
     inkscape:window-y="-8"
     inkscape:window-maximized="1"
     inkscape:current-layer="Capa_1" /><g
     id="g3"><path
       fill="#EF6129"
       d="M651.794,332.797c-26.571,0-48.113,21.541-48.113,48.113v122.863h-407.36V380.91   c0-26.572-21.542-48.113-48.113-48.113s-48.113,21.541-48.113,48.113v170.977c0,26.571,21.542,48.113,48.113,48.113h503.586   c26.571,0,48.113-21.542,48.113-48.113V380.91C699.907,354.337,678.365,332.797,651.794,332.797z"
       id="path5" /><path
       fill="#EF6129"
       d="M501.821,173.668l-53.707,53.708V48.113C448.114,21.542,426.572,0,400.001,0   c-26.572,0-48.113,21.542-48.113,48.113v179.262l-53.708-53.708c-9.393-9.393-21.707-14.092-34.021-14.092   c-12.313,0-24.626,4.699-34.021,14.092c-18.789,18.792-18.789,49.254,0,68.042L365.98,377.552   c18.788,18.791,49.252,18.791,68.042,0L569.863,241.71c18.791-18.788,18.791-49.25,0-68.042   C551.075,154.876,520.609,154.876,501.821,173.668z"
       id="path7" /></g><path
     style="fill:#ff7f2a"
     d="m 126.94444,593.16035 c -12.21965,-7.62366 -20.60494,-17.67848 -23.67744,-28.39166 -3.555441,-12.39708 -3.545279,-184.39795 0.0116,-196.80015 3.06011,-10.66998 14.35268,-23.72369 25.61121,-29.60542 19.22254,-10.04232 48.33391,-0.42146 59.75786,19.74905 6.01597,10.622 6.26271,13.68994 6.30662,78.41561 l 0.0457,67.36111 205.55556,0 205.55555,0 0,-69.03366 c 0,-67.01767 0.1825,-69.30183 6.25,-78.21681 10.98886,-16.146 19.85314,-20.80509 39.58333,-20.80509 19.7302,0 28.59448,4.65909 39.58334,20.80509 6.1973,9.10571 6.25,10.03122 6.25,109.75047 0,99.71924 -0.0528,100.64475 -6.25,109.75047 -3.4375,5.05073 -9.77881,11.79809 -14.09181,14.99412 -7.81291,5.78956 -8.82575,5.81357 -275,6.51844 -256.90504,0.68033 -267.47801,0.50795 -275.49153,-4.49157 z"
     id="path3341"
     inkscape:connector-curvature="0" /><path
     style="fill:#ff7f2a"
     d="m 378.33333,384.52658 c -5.34722,-2.87533 -42.38679,-38.13258 -82.31014,-78.34944 -77.41006,-77.97917 -81.02022,-82.86282 -77.98476,-105.49388 1.74078,-12.97847 12.79718,-28.40612 24.80925,-34.6178 10.26446,-5.30797 31.92483,-5.87603 41.31938,-1.08364 3.66645,1.87034 20.72877,17.30668 37.91627,34.30298 l 31.25,30.90236 0,-96.04557 c 0,-94.900818 0.0762,-96.18974 6.3965,-108.141528 4.372,-8.267579 10.22488,-14.120453 18.49246,-18.4924542 25.69153,-13.5860125 51.79125,-4.3442481 64.30537,22.7701702 4.66282,10.102958 5.13364,19.676305 5.18911,105.510242 l 0.061,94.39914 31.25,-30.90236 c 17.1875,-16.9963 34.19511,-32.40336 37.79469,-34.23791 9.68989,-4.93854 28.27475,-4.35732 40.09989,1.25407 19.18722,9.10493 29.37736,31.6935 23.8487,52.86571 -2.42992,9.30555 -15.16409,23.45977 -78.364,87.10283 -41.50444,41.79544 -79.48497,77.73294 -84.40117,79.86111 -12.23315,5.29558 -28.02916,4.65692 -39.67256,-1.60403 z"
     id="path3343"
     inkscape:connector-curvature="0" /></svg>