<?xml version="1.0" encoding="utf-8"?>
<!-- Generator: Adobe Illustrator 15.0.0, SVG Export Plug-In . SVG Version: 6.00 Build 0)  -->
<!DOCTYPE svg PUBLIC "-//W3C//DTD SVG 1.1//EN" "http://www.w3.org/Graphics/SVG/1.1/DTD/svg11.dtd">
<svg version="1.1" id="Layer_1" xmlns="http://www.w3.org/2000/svg" xmlns:xlink="http://www.w3.org/1999/xlink" x="0px" y="0px"
	 width="117.403px" height="114.477px" viewBox="36.298 37.849 117.403 114.477"
	 enable-background="new 36.298 37.849 117.403 114.477" xml:space="preserve">
<g id="Layer_2">
</g>
<g id="Layer_3">
	<g>
		<g>
			<g>
				<path fill="#EBF4FF" d="M36.298,95.14c0,0.046,0.002,0.092,0.002,0.139c0.04-16.36,7.037-31.117,18.244-41.574
					C43.305,64.122,36.298,78.833,36.298,95.14z"/>
			</g>
		</g>
		<g>
			<g>
				<path fill="#EBF4FF" d="M135.383,53.638c11.25,10.461,18.277,25.246,18.316,41.641c0-0.046,0.002-0.092,0.002-0.139
					C153.701,78.799,146.664,64.06,135.383,53.638z"/>
			</g>
		</g>
		<g>
			<g>
				<path fill="#FFFFFF" d="M69.642,100.25l-15.608-0.041c-1.457,0-2.127,0.985-2.638,2.398l-7.687,20.356
					c3.679,6.422,8.591,12.082,14.426,16.675l13.633-37.031C72.15,101.183,71.099,100.25,69.642,100.25z"/>
			</g>
		</g>
		<g>
			<g>
				<path fill="#EBF4FF" d="M36.318,96.638c-0.001-0.056-0.001-0.111-0.002-0.166C36.317,96.527,36.317,96.583,36.318,96.638z"/>
			</g>
		</g>
		<g>
			<g>
				<path fill="#EBF4FF" d="M153.663,97.102c0.015-0.436,0.025-0.872,0.03-1.31C153.69,96.23,153.676,96.666,153.663,97.102z"/>
			</g>
		</g>
		<g>
			<g>
				<path fill="#FFFFFF" d="M132.02,74.76l-15.608-0.041c-1.457,0-2.128,0.986-2.639,2.399L85.65,151.601
					c3.045,0.475,6.167,0.725,9.35,0.725c4.073,0,8.051-0.405,11.891-1.174l27.255-74.033
					C134.528,75.695,133.478,74.76,132.02,74.76z"/>
			</g>
		</g>
		<g>
			<g>
				<path fill="#FFFFFF" d="M100.22,88.254L84.61,88.215c-1.457,0-2.126,0.985-2.638,2.398l-19.649,52.039
					c5.418,3.544,11.475,6.231,17.969,7.863l22.053-59.903C102.728,89.189,101.676,88.254,100.22,88.254z"/>
			</g>
		</g>
		<path fill="#4C7ABC" d="M36.298,95.418c0,0.353,0.011,0.703,0.018,1.054c-0.009-0.396-0.015-0.795-0.016-1.193
			C36.3,95.325,36.298,95.372,36.298,95.418z"/>
		<path fill="#4C7ABC" d="M135.383,53.638C124.86,43.853,110.645,37.849,95,37.849c-15.682,0-29.925,6.031-40.456,15.855
			c10.53-9.76,24.775-15.75,40.456-15.75C110.646,37.954,124.86,43.918,135.383,53.638z"/>
		<path fill="#4C7ABC" d="M153.663,97.102c-0.926,26.737-20.688,48.821-46.772,54.05"/>
		<path fill="#4C7ABC" d="M153.701,95.418c0-0.047-0.002-0.093-0.002-0.139c0,0.171-0.005,0.342-0.006,0.513
			C153.694,95.667,153.701,95.544,153.701,95.418z"/>
		<path fill="#939393" d="M153.699,95.279c-0.039-16.396-7.067-31.18-18.316-41.641C124.86,43.918,110.646,37.954,95,37.954
			c-15.681,0-29.926,5.991-40.456,15.75C43.337,64.162,36.34,78.918,36.3,95.279c0,0.398,0.006,0.796,0.016,1.193
			c0.001,0.055,0.001,0.11,0.002,0.165c0.252,9.542,2.906,18.499,7.39,26.327l7.687-20.356c0.51-1.414,1.18-2.399,2.638-2.399
			l15.608,0.042c1.456,0,2.508,0.933,2.126,2.357L58.135,139.64c1.349,1.063,2.746,2.068,4.189,3.013l19.649-52.039
			c0.511-1.414,1.181-2.398,2.638-2.398l15.609,0.039c1.456,0,2.509,0.936,2.126,2.359l-22.053,59.903
			c1.755,0.44,3.543,0.802,5.358,1.084l28.123-74.481c0.511-1.414,1.181-2.399,2.638-2.399l15.609,0.04
			c1.457,0,2.509,0.935,2.126,2.359l-27.256,74.032c26.085-5.228,45.848-27.313,46.773-54.05c0.013-0.436,0.026-0.871,0.029-1.31
			C153.694,95.622,153.699,95.45,153.699,95.279z"/>
	</g>
</g>
<ellipse fill="#DD0000" cx="127.764" cy="125.755" rx="25.731" ry="26.089"/>
<path fill="#FCFCFC" d="M121.567,138.205c-0.874,0.854-2.274,0.839-3.129-0.036l-3.288-3.358c-0.855-0.873-0.841-2.274,0.034-3.129
	l18.776-18.376c0.873-0.854,2.275-0.839,3.128,0.035l3.289,3.359c0.854,0.872,0.84,2.274-0.033,3.128L121.567,138.205z"/>
<path fill="#FCFCFC" d="M139.985,132.393c0.82,0.904,0.755,2.304-0.147,3.125l-3.477,3.166c-0.902,0.823-2.301,0.758-3.124-0.146
	l-17.692-19.423c-0.822-0.903-0.757-2.303,0.146-3.124l3.477-3.166c0.903-0.824,2.301-0.759,3.125,0.146L139.985,132.393z"/>
</svg>
