<?xml version="1.0" encoding="utf-8"?>
<!-- Generator: Adobe Illustrator 15.0.0, SVG Export Plug-In . SVG Version: 6.00 Build 0)  -->
<!DOCTYPE svg PUBLIC "-//W3C//DTD SVG 1.1//EN" "http://www.w3.org/Graphics/SVG/1.1/DTD/svg11.dtd">
<svg version="1.1" id="Capa_1" xmlns="http://www.w3.org/2000/svg" xmlns:xlink="http://www.w3.org/1999/xlink" x="0px" y="0px"
	 width="480.157px" height="480.22px" viewBox="159.492 43.945 480.157 480.22"
	 enable-background="new 159.492 43.945 480.157 480.22" xml:space="preserve">
<g id="Layer_2">
	<path fill="#B0C4DE" d="M639.649,461.165c0,34.794-28.206,63-62.999,63H222.492c-34.794,0-63-28.206-63-63v-354.22
		c0-34.794,28.206-63,63-63H576.65c34.793,0,62.999,28.206,62.999,63V461.165L639.649,461.165z"/>
</g>
<rect x="342.652" y="143.437" fill="#B0C4DE" width="198.848" height="199.063"/>
<g>
	<path fill="#FFFFFF" d="M581.712,378.145V110.546c0-4.766-3.862-8.634-8.634-8.634H305.483c-4.769,0-8.635,3.866-8.635,8.634
		v70.787h-70.786c-4.769,0-8.635,3.866-8.635,8.634v267.598c0,4.767,3.864,8.633,8.635,8.633H493.66
		c4.771,0,8.633-3.864,8.633-8.633v-70.788h70.787c4.77,0,8.634-3.864,8.634-8.633H581.712z M529.917,334.98h-27.626V189.967
		c0-4.766-3.862-8.634-8.633-8.634H348.645v-27.626h181.272V334.98z"/>
	<rect x="269.223" y="233.128" fill="#FFFFFF" width="181.272" height="181.273"/>
</g>
<rect x="267.652" y="234.073" fill="#B0C4DE" width="181.272" height="181.272"/>
</svg>
