<?xml version="1.0" encoding="utf-8"?>
<!-- Generator: Adobe Illustrator 15.0.0, SVG Export Plug-In . SVG Version: 6.00 Build 0)  -->
<!DOCTYPE svg PUBLIC "-//W3C//DTD SVG 1.1//EN" "http://www.w3.org/Graphics/SVG/1.1/DTD/svg11.dtd">
<svg version="1.1" xmlns="http://www.w3.org/2000/svg" xmlns:xlink="http://www.w3.org/1999/xlink" x="0px" y="0px"
	 width="480.221px" height="480.221px" viewBox="0 0 480.221 480.221" enable-background="new 0 0 480.221 480.221"
	 xml:space="preserve">
<g id="Capa_1" display="none">
	<g display="inline">
		<path fill="#FFFFFF" d="M480.158,260.878v166.979c0,28.874-23.501,52.362-52.381,52.362H52.453
			c-28.889,0-52.39-23.488-52.39-52.362V52.938c0-28.874,23.501-52.369,52.39-52.369h167.434
			c-9.011,9.244-15.004,21.45-16.316,35.003H52.447c-9.582,0-17.378,7.791-17.378,17.366v374.92c0,9.568,7.796,17.359,17.378,17.359
			h375.326c9.58,0,17.371-7.791,17.371-17.359V277.169C458.33,275.903,470.56,270.235,480.158,260.878z M399.287,230.096H284.831
			L470.099,44.829c10.249-10.261,10.249-26.882,0-37.131c-10.256-10.261-26.883-10.261-37.132-0.012L247.7,192.958V78.497
			c0-14.499-11.757-26.262-26.259-26.262c-7.25,0-13.816,2.932-18.569,7.689c-4.752,4.765-7.693,11.325-7.693,18.572v177.854
			c0,14.498,11.754,26.256,26.256,26.256h177.852c14.505,0,26.256-11.752,26.256-26.256
			C425.543,241.845,413.792,230.096,399.287,230.096z"/>
	</g>
</g>
<g id="Layer_2">
	<path fill="#B0C4DE" d="M480.221,417.221c0,34.794-28.206,63-63,63H63.063c-34.794,0-63-28.206-63-63V63c0-34.794,28.206-63,63-63
		h354.158c34.794,0,63,28.206,63,63V417.221z"/>
</g>
<g id="Layer_3">
	<path fill="#FAFDFF" d="M403.642,403.61c0,8.836-5.622,16-12.556,16H99.166c-6.935,0-12.556-7.164-12.556-16v-22
		c0-8.836,5.621-16,12.556-16h291.92c6.934,0,12.556,7.164,12.556,16V403.61z"/>
</g>
</svg>
