<?xml version="1.0" encoding="UTF-8" standalone="no"?>
<!-- Generator: Adobe Illustrator 15.0.0, SVG Export Plug-In . SVG Version: 6.00 Build 0)  -->

<svg
   xmlns:dc="http://purl.org/dc/elements/1.1/"
   xmlns:cc="http://creativecommons.org/ns#"
   xmlns:rdf="http://www.w3.org/1999/02/22-rdf-syntax-ns#"
   xmlns:svg="http://www.w3.org/2000/svg"
   xmlns="http://www.w3.org/2000/svg"
   xmlns:sodipodi="http://sodipodi.sourceforge.net/DTD/sodipodi-0.dtd"
   xmlns:inkscape="http://www.inkscape.org/namespaces/inkscape"
   version="1.1"
   x="0px"
   y="0px"
   width="480.221px"
   height="480.221px"
   viewBox="0 0 480.221 480.221"
   enable-background="new 0 0 480.221 480.221"
   xml:space="preserve"
   id="svg2"
   inkscape:version="0.48.5 r10040"
   sodipodi:docname="minimize.svg"><metadata
     id="metadata19"><rdf:RDF><cc:Work
         rdf:about=""><dc:format>image/svg+xml</dc:format><dc:type
           rdf:resource="http://purl.org/dc/dcmitype/StillImage" /><dc:title></dc:title></cc:Work></rdf:RDF></metadata><defs
     id="defs17" /><sodipodi:namedview
     pagecolor="#ffffff"
     bordercolor="#666666"
     borderopacity="1"
     objecttolerance="10"
     gridtolerance="10"
     guidetolerance="10"
     inkscape:pageopacity="0"
     inkscape:pageshadow="2"
     inkscape:window-width="879"
     inkscape:window-height="699"
     id="namedview15"
     showgrid="false"
     inkscape:zoom="0.49144039"
     inkscape:cx="240.1105"
     inkscape:cy="240.1105"
     inkscape:window-x="777"
     inkscape:window-y="1305"
     inkscape:window-maximized="0"
     inkscape:current-layer="svg2" /><g
     id="Capa_1"
     display="none"><g
       display="inline"
       id="g5"><path
         fill="#FFFFFF"
         d="M480.158,260.878v166.979c0,28.874-23.501,52.362-52.381,52.362H52.453    c-28.889,0-52.39-23.488-52.39-52.362V52.938c0-28.874,23.501-52.369,52.39-52.369h167.434    c-9.011,9.244-15.004,21.45-16.316,35.003H52.447c-9.582,0-17.378,7.791-17.378,17.366v374.92c0,9.568,7.796,17.359,17.378,17.359    h375.326c9.58,0,17.371-7.791,17.371-17.359V277.169C458.33,275.903,470.56,270.235,480.158,260.878z M399.287,230.096H284.831    L470.099,44.829c10.249-10.261,10.249-26.882,0-37.131c-10.256-10.261-26.883-10.261-37.132-0.012L247.7,192.958V78.497    c0-14.499-11.757-26.262-26.259-26.262c-7.25,0-13.816,2.932-18.569,7.689c-4.752,4.765-7.693,11.325-7.693,18.572v177.854    c0,14.498,11.754,26.256,26.256,26.256h177.852c14.505,0,26.256-11.752,26.256-26.256    C425.543,241.845,413.792,230.096,399.287,230.096z"
         id="path7" /></g></g><g
     id="Layer_2"><path
       d="M480.221,417.221c0,34.794-28.206,63-63,63H63.063c-34.794,0-63-28.206-63-63V63c0-34.794,28.206-63,63-63   h354.158c34.794,0,63,28.206,63,63V417.221z"
       id="path10"
       fill="#B0C4DE" /></g><g
     id="Layer_3"
     transform="translate(-2.0348347,-290.98137)"><path
       d="m 403.642,403.61 c 0,8.836 -5.622,16 -12.556,16 H 99.166 c -6.935,0 -12.556,-7.164 -12.556,-16 v -22 c 0,-8.836 5.621,-16 12.556,-16 h 291.92 c 6.934,0 12.556,7.164 12.556,16 v 22 z"
       id="path13"
       inkscape:connector-curvature="0"
       style="fill:#fafdff" /></g></svg>