<?xml version="1.0" encoding="utf-8"?>
<!-- Generator: Adobe Illustrator 15.0.0, SVG Export Plug-In . SVG Version: 6.00 Build 0)  -->
<!DOCTYPE svg PUBLIC "-//W3C//DTD SVG 1.1//EN" "http://www.w3.org/Graphics/SVG/1.1/DTD/svg11.dtd">
<svg version="1.1" id="Layer_1" xmlns="http://www.w3.org/2000/svg" xmlns:xlink="http://www.w3.org/1999/xlink" x="0px" y="0px"
	 width="480.157px" height="480.221px" viewBox="0 0 480.157 480.221" enable-background="new 0 0 480.157 480.221"
	 xml:space="preserve">
<g id="Layer_2">
	<path fill="#B0C4DE" d="M480.157,417.221c0,34.794-28.206,63-62.999,63H63c-34.794,0-63-28.206-63-63V63C0,28.206,28.206,0,63,0
		h354.158c34.793,0,62.999,28.206,62.999,63V417.221L480.157,417.221z"/>
</g>
<g id="Capa_1">
	<g>
		<g>
			<path fill="#FFFFFF" d="M397.175,336.485l-60.716,60.68c-2.945,2.944-7.628,2.944-10.573,0l-85.788-85.79l-85.787,85.828
				c-2.946,2.906-7.627,2.906-10.573,0l-60.716-60.718c-2.907-2.944-2.907-7.627,0-10.573l85.75-85.788l-85.788-85.787
				c-2.907-2.946-2.907-7.628,0-10.573l60.716-60.716c2.945-2.945,7.627-2.945,10.573,0l85.789,85.788l85.789-85.788
				c2.944-2.945,7.627-2.945,10.572,0l60.68,60.716c2.946,2.945,2.946,7.627,0,10.573l-85.715,85.787l85.79,85.788
				C400.083,328.858,400.083,333.541,397.175,336.485z"/>
		</g>
	</g>
</g>
</svg>
