<?xml version="1.0" encoding="UTF-8" standalone="no"?>
<!-- Generator: Adobe Illustrator 15.0.0, SVG Export Plug-In . SVG Version: 6.00 Build 0)  -->

<svg
   xmlns:dc="http://purl.org/dc/elements/1.1/"
   xmlns:cc="http://creativecommons.org/ns#"
   xmlns:rdf="http://www.w3.org/1999/02/22-rdf-syntax-ns#"
   xmlns:svg="http://www.w3.org/2000/svg"
   xmlns="http://www.w3.org/2000/svg"
   xmlns:sodipodi="http://sodipodi.sourceforge.net/DTD/sodipodi-0.dtd"
   xmlns:inkscape="http://www.inkscape.org/namespaces/inkscape"
   version="1.1"
   id="Capa_1"
   x="0px"
   y="0px"
   width="612.012px"
   height="612.012px"
   viewBox="0 0 612.012 612.012"
   enable-background="new 0 0 612.012 612.012"
   xml:space="preserve"
   inkscape:version="0.91 r13725"
   sodipodi:docname="StatusBar_IMZoomIn.svg"><metadata
     id="metadata17"><rdf:RDF><cc:Work
         rdf:about=""><dc:format>image/svg+xml</dc:format><dc:type
           rdf:resource="http://purl.org/dc/dcmitype/StillImage" /></cc:Work></rdf:RDF></metadata><defs
     id="defs15" /><sodipodi:namedview
     pagecolor="#ffffff"
     bordercolor="#666666"
     borderopacity="1"
     objecttolerance="10"
     gridtolerance="10"
     guidetolerance="10"
     inkscape:pageopacity="0"
     inkscape:pageshadow="2"
     inkscape:window-width="1758"
     inkscape:window-height="789"
     id="namedview13"
     showgrid="false"
     inkscape:zoom="0.6791679"
     inkscape:cx="-0.9872945"
     inkscape:cy="261.85142"
     inkscape:window-x="1304"
     inkscape:window-y="1130"
     inkscape:window-maximized="0"
     inkscape:current-layer="Capa_1" /><ellipse
     style="fill:#ffffff;fill-rule:evenodd;stroke:#000000;stroke-width:1px;stroke-linecap:butt;stroke-linejoin:miter;stroke-opacity:1"
     id="path4156"
     ry="206.87079"
     rx="222.33089"
     cy="239.70595"
     cx="233.88913" /><ellipse
     cx="240.88136"
     cy="242.61937"
     rx="108.91929"
     ry="67.064812"
     id="ellipse3"
     style="fill:#ffffff" /><g
     id="g7"
     style="fill:#32966d;fill-opacity:1"><path
       style="fill:#32966d;fill-opacity:1"
       inkscape:connector-curvature="0"
       id="path9"
       d="M 601.436,535.885 433.663,368.489 c 1.512,-2.268 2.639,-6.031 3.771,-10.938 17.721,-29.785 28.676,-62.206 32.045,-96.518 0.779,-7.915 1.135,-16.207 1.135,-24.13 0,-26.012 -4.344,-52.088 -13.199,-77.665 -11.51,-33.243 -30.098,-62.648 -55.426,-88.226 -90.414,-91.298 -242.656,-91.097 -332.901,0 -30.018,30.299 -50.391,65.633 -61.08,105.945 -10.802,40.755 -10.553,80.681 0,121.026 10.553,40.343 30.652,75.669 61.08,105.943 45.355,45.131 104.811,68.617 166.269,68.617 47.125,0 89.972,-13.625 129.697,-38.455 l 6.032,-3.771 168.529,168.15 c 6.609,6.598 13.182,10.932 19.607,10.932 l 3.396,0 c 4.896,0 9.111,-1.014 12.441,-3.016 4.215,-2.525 9.129,-6.322 14.703,-11.688 4.23,-4.063 6.41,-6.41 6.787,-7.537 10.186,-10.182 15.459,-19.986 15.459,-29.414 -0.011,-7.535 -3.396,-14.708 -10.572,-21.859 z M 422.354,287.431 c -8.848,33.128 -25.643,62.206 -50.52,87.091 -36.194,36.188 -84.833,56.553 -136.485,56.553 -52.78,0 -97.942,-19.328 -136.855,-56.553 -73.812,-70.61 -73.635,-202.181 0,-273.339 38.72,-37.425 83.698,-56.93 136.855,-56.93 53.914,0 98.892,19.111 136.485,56.93 24.619,24.773 41.849,53.535 50.52,86.714 8.67,33.169 8.871,66.299 0,99.534 z" /><rect
       style="fill:#32966d;fill-opacity:1"
       id="rect11"
       height="45.620998"
       width="198.314"
       y="214.65601"
       x="136.571" /></g><rect
     style="fill:#32966d;fill-rule:evenodd;stroke:#000000;stroke-width:0;stroke-linecap:butt;stroke-linejoin:miter;stroke-opacity:1;image-rendering:auto;fill-opacity:1;stroke-miterlimit:4;stroke-dasharray:none"
     id="rect3360"
     width="45.644089"
     height="223.80327"
     x="212.55176"
     y="126.12334" /><ellipse
     style="fill:#ffffff;fill-opacity:0;stroke-width:0;stroke-miterlimit:4;stroke-dasharray:none"
     id="path4137"
     cx="243.68054"
     cy="252.01268"
     rx="147.97519"
     ry="178.89539" /><ellipse
     style="fill:#808000;fill-opacity:0;stroke-width:0;stroke-miterlimit:4;stroke-dasharray:none"
     id="path4144"
     cx="214.96893"
     cy="232.87161"
     rx="129.57031"
     ry="156.80952" /><ellipse
     style="fill:#ff0000;fill-opacity:0;stroke-width:0;stroke-miterlimit:4;stroke-dasharray:none;opacity:0.01"
     id="path4146"
     cx="323.18961"
     cy="222.56488"
     rx="240.73576"
     ry="174.47821" /><ellipse
     style="opacity:0.01000001;fill:#ff0000;fill-opacity:0;stroke-width:0;stroke-miterlimit:4;stroke-dasharray:none"
     id="path4148"
     cx="200.98123"
     cy="263.79181"
     rx="83.190033"
     ry="145.03041" /><ellipse
     style="opacity:0.01000001;fill:#ff0000;fill-opacity:0;stroke-width:0;stroke-miterlimit:4;stroke-dasharray:none"
     id="path4150"
     cx="-157.54573"
     cy="351.39899"
     rx="265.03018"
     ry="263.5578" /></svg>