<?xml version="1.0" encoding="utf-8"?>
<!-- Generator: Adobe Illustrator 15.0.0, SVG Export Plug-In . SVG Version: 6.00 Build 0)  -->
<!DOCTYPE svg PUBLIC "-//W3C//DTD SVG 1.1//EN" "http://www.w3.org/Graphics/SVG/1.1/DTD/svg11.dtd">
<svg version="1.1" id="Capa_1" xmlns="http://www.w3.org/2000/svg" xmlns:xlink="http://www.w3.org/1999/xlink" x="0px" y="0px"
	 width="612.012px" height="612.012px" viewBox="0 0 612.012 612.012" enable-background="new 0 0 612.012 612.012"
	 xml:space="preserve">
<ellipse fill="#FFFFFF" cx="235.728" cy="237.466" rx="209.778" ry="215.04"/>
<g>
	<g>
		<path fill="#32966D" d="M601.436,535.885L433.663,368.489c1.512-2.268,2.639-6.031,3.771-10.938
			c17.721-29.785,28.676-62.206,32.045-96.518c0.779-7.915,1.135-16.207,1.135-24.13c0-26.012-4.344-52.088-13.199-77.665
			c-11.51-33.243-30.098-62.648-55.426-88.226c-90.414-91.298-242.656-91.097-332.901,0c-30.018,30.299-50.391,65.633-61.08,105.945
			c-10.802,40.755-10.553,80.681,0,121.026c10.553,40.343,30.652,75.669,61.08,105.943c45.355,45.131,104.811,68.617,166.269,68.617
			c47.125,0,89.972-13.625,129.697-38.455l6.032-3.771l168.529,168.15c6.609,6.598,13.182,10.932,19.607,10.932h3.396
			c4.896,0,9.111-1.014,12.441-3.016c4.215-2.525,9.129-6.322,14.703-11.688c4.23-4.063,6.41-6.41,6.787-7.537
			c10.186-10.182,15.459-19.986,15.459-29.414C611.997,550.209,608.612,543.036,601.436,535.885z M422.354,287.431
			c-8.848,33.128-25.643,62.206-50.52,87.091c-36.194,36.188-84.833,56.553-136.485,56.553c-52.78,0-97.942-19.328-136.855-56.553
			c-73.812-70.61-73.635-202.181,0-273.339c38.72-37.425,83.698-56.93,136.855-56.93c53.914,0,98.892,19.111,136.485,56.93
			c24.619,24.773,41.849,53.535,50.52,86.714C431.024,221.066,431.225,254.196,422.354,287.431z"/>
		<rect x="136.571" y="214.656" fill="#32966D" width="198.314" height="45.621"/>
	</g>
</g>
</svg>
