<?xml version="1.0" encoding="utf-8"?>
<!-- Generator: Adobe Illustrator 15.0.0, SVG Export Plug-In . SVG Version: 6.00 Build 0)  -->
<!DOCTYPE svg PUBLIC "-//W3C//DTD SVG 1.1//EN" "http://www.w3.org/Graphics/SVG/1.1/DTD/svg11.dtd">
<svg version="1.1" id="Capa_1" xmlns="http://www.w3.org/2000/svg" xmlns:xlink="http://www.w3.org/1999/xlink" x="0px" y="0px"
	 width="800px" height="600px" viewBox="0 0 800 600" enable-background="new 0 0 800 600" xml:space="preserve">
<g>
	<g>
		<g>
			<path fill="#4C7ABC" d="M687.474,417.419l0.327-0.177L431.933,160.01l-0.38-121.042L307.811,5.816l-13.206,13.23l65.849,65.672
				l-64.132,64.283l-65.849-65.722l-13.18,13.079l33.176,123.667l117.709,0.455l-0.783,0.631L624.981,479.96l0.328-0.304
				c17.245,16.765,44.791,16.765,61.707-0.328C704.213,462.361,704.289,434.765,687.474,417.419z M670.809,462.992
				c-7.65,7.676-20.022,7.676-27.57,0c-7.625-7.601-7.677-19.871-0.051-27.521c7.6-7.65,19.997-7.65,27.647-0.05
				C678.383,443.021,678.483,455.367,670.809,462.992z"/>
			<path fill="#4C7ABC" d="M155.132,272.34c2.095,0.404,51.078,10.175,61.606,65.443c-13.306,14.114-21.613,33.834-21.613,55.725
				c0,0.253,0.05,0.43,0.05,0.556H334.8c0-0.202,0-0.379,0-0.556c0-21.891-8.307-41.61-21.587-55.725
				c10.528-55.244,59.486-65.04,61.556-65.443c4.57-0.884,7.676-5.252,6.843-9.872c-0.833-4.569-5.226-7.65-9.847-6.843
				c-0.581,0.126-57.062,11.033-73.196,70.216c-9.973-6.009-21.437-9.468-33.63-9.468c-12.146,0-23.608,3.484-33.606,9.519
				c-16.185-59.233-72.589-70.09-73.221-70.216c-4.569-0.808-8.938,2.271-9.771,6.842
				C147.431,267.089,150.536,271.456,155.132,272.34z"/>
			<path fill="#4C7ABC" d="M421.984,340.26c-5.934-1.868-12.246,1.489-14.14,7.447c0,0-13.811,44.539-16.739,54.107
				c-5.983,1.617-24.289,6.793-36.913,10.276c-0.479-2.021-0.833-4.015-1.313-5.984H176.997c-0.43,1.971-0.833,3.965-1.263,5.984
				c-12.624-3.56-30.955-8.661-36.913-10.276c-2.979-9.568-16.765-54.133-16.765-54.133c-1.818-5.934-8.155-9.317-14.088-7.448
				c-5.984,1.793-9.317,8.104-7.448,14.088l20.376,65.85l51.583,14.366c-0.328,4.746-0.631,9.568-0.631,14.493
				c0,6.01,0.379,11.993,0.909,17.825l-51.559,23.076l-16.108,90.997c-1.061,6.11,3.029,12.019,9.191,13.079
				c6.11,1.087,11.993-2.954,13.053-9.114c0,0,12.246-68.954,14.013-79.256c4.974-2.247,21.284-9.568,35.222-15.704
				c12.195,52.063,47.189,89.733,88.445,89.733c41.231,0,76.276-37.619,88.497-89.733c13.861,6.136,30.198,13.457,35.171,15.704
				c1.742,10.226,13.988,79.256,13.988,79.256c1.086,6.16,6.943,10.201,13.13,9.114c6.16-1.061,10.175-6.893,9.14-13.079
				l-16.134-90.995l-51.507-23.002c0.53-5.832,0.884-11.816,0.884-17.8c0-4.923-0.303-9.771-0.631-14.543l51.559-14.341l20.4-65.874
				C431.275,348.39,427.918,342.077,421.984,340.26z"/>
		</g>
	</g>
</g>
</svg>
