<?xml version="1.0" encoding="utf-8"?>
<!-- Generator: Adobe Illustrator 15.0.0, SVG Export Plug-In . SVG Version: 6.00 Build 0)  -->
<!DOCTYPE svg PUBLIC "-//W3C//DTD SVG 1.1//EN" "http://www.w3.org/Graphics/SVG/1.1/DTD/svg11.dtd">
<svg version="1.1" id="Capa_1" xmlns="http://www.w3.org/2000/svg" xmlns:xlink="http://www.w3.org/1999/xlink" x="0px" y="0px"
	 width="600px" height="565.82px" viewBox="100 17.09 600 565.82" enable-background="new 100 17.09 600 565.82"
	 xml:space="preserve">
<rect x="348.5" y="161.5" fill="#F4F4F4" width="110" height="359"/>
<g>
	<g>
		<g>
			<path fill="#E9B607" d="M695.565,527.422L433.854,37.044c-6.525-12.26-19.314-19.954-33.232-19.954h-0.037
				c-13.919,0-26.668,7.657-33.233,19.917l-262.88,490.376c-6.261,11.77-5.922,25.877,0.868,37.193
				c6.827,11.354,19.125,18.333,32.365,18.333h524.553c13.278,0,25.537-6.941,32.365-18.333
				C701.449,553.224,701.789,539.116,695.565,527.422z M400.584,507.467c-20.823,0-37.721-16.899-37.721-37.721
				s16.899-37.721,37.721-37.721c20.784,0,37.721,16.899,37.721,37.721S421.406,507.467,400.584,507.467z M438.343,357.186
				c0,20.86-16.937,37.721-37.721,37.721c-20.823,0-37.721-16.862-37.721-37.721V206.3c0-20.823,16.899-37.721,37.721-37.721
				c20.784,0,37.721,16.899,37.721,37.721V357.186z"/>
		</g>
	</g>
</g>
</svg>
