<?xml version="1.0" encoding="utf-8"?>
<!-- Generator: Adobe Illustrator 15.0.0, SVG Export Plug-In . SVG Version: 6.00 Build 0)  -->
<!DOCTYPE svg PUBLIC "-//W3C//DTD SVG 1.1//EN" "http://www.w3.org/Graphics/SVG/1.1/DTD/svg11.dtd">
<svg version="1.1" xmlns="http://www.w3.org/2000/svg" xmlns:xlink="http://www.w3.org/1999/xlink" x="0px" y="0px" width="800px"
	 height="600px" viewBox="0 0 800 600" enable-background="new 0 0 800 600" xml:space="preserve">
<g id="Layer_2">
	<ellipse fill="#FFFFFF" cx="400" cy="305.5" rx="267.5" ry="265"/>
</g>
<g id="Capa_1">
	<g>
		<g id="Layer_5_23_">
			<g>
				<path fill="#4C7ABC" d="M399.999,0C234.315,0,100,134.315,100,299.999S234.317,600,399.999,600
					C565.687,600,700,465.687,700,300.001S565.687,0,399.999,0z M432.396,535.248V523.46c0-17.892-14.505-32.396-32.396-32.396
					c-17.89,0-32.394,14.505-32.394,32.396v11.788c0,4.159-3.525,3.865-5.278,3.588c-103.72-16.298-185.757-98.766-201.4-202.698
					c-0.186-1.244-0.832-3.739,3.838-3.739h11.838c17.893,0,32.396-14.505,32.396-32.396c0-17.892-14.503-32.396-32.396-32.396
					h-11.838c-5.108,0-3.919-3.251-3.668-4.868c16.268-105.145,98.298-187.774,204.125-202.009c0,0,2.38-0.693,2.38,2.809
					c0,3.282,0,13.13,0,13.13c0,17.892,14.504,32.396,32.394,32.396c17.891,0,32.396-14.504,32.396-32.396c0,0,0-9.629,0-12.839
					c0-3.065,1.751-3.191,1.751-3.191c106.488,14.324,189.499,97.985,205.051,204.068c0.144,0.965,0.711,2.898-3.01,2.898h-12.792
					c-17.892,0-32.396,14.504-32.396,32.396s14.505,32.396,32.396,32.396l12.354,0.128c3.722,0,3.622,1.585,3.496,2.439
					c-15.247,104.814-97.979,188.037-202.554,204.026C435.262,539.206,432.396,539.626,432.396,535.248z"/>
				<path fill="#4C7ABC" d="M561.463,160.052c-6.173-6.803-16.694-7.318-23.501-1.144L416.528,269.074
					c-2.228,1.896-3.19,1.089-3.868,0.817c-3.916-1.576-8.182-2.463-12.661-2.463c-7.647,0-14.688,2.536-20.376,6.789
					c-0.813,0.607-2.714,2.19-4.874,0.912l-85.68-34.471c-11.361-4.894-24.54,0.352-29.431,11.712
					c-4.895,11.361,0.35,24.539,11.713,29.431l100.349,40.373c1.743,0.457,2.744,2.033,3.36,2.693
					c6.231,6.672,15.09,10.855,24.94,10.855c18.86,0,34.147-15.288,34.147-34.147c0-1.15,0.113-3.716,1.74-5.142L560.319,183.55
					C567.124,177.377,567.637,166.857,561.463,160.052z"/>
			</g>
		</g>
	</g>
</g>
</svg>
