<?xml version="1.0" encoding="utf-8"?>
<!-- Generator: Adobe Illustrator 15.0.0, SVG Export Plug-In . SVG Version: 6.00 Build 0)  -->
<!DOCTYPE svg PUBLIC "-//W3C//DTD SVG 1.1//EN" "http://www.w3.org/Graphics/SVG/1.1/DTD/svg11.dtd">
<svg version="1.1" id="Capa_1" xmlns="http://www.w3.org/2000/svg" xmlns:xlink="http://www.w3.org/1999/xlink" x="0px" y="0px"
	 width="800px" height="600px" viewBox="0 0 800 600" enable-background="new 0 0 800 600" xml:space="preserve">
<rect x="247.5" y="89.5" fill="#FFFFFF" width="296" height="424"/>
<g>
	<path fill="#4C7ABC" d="M399.987,0C234.324,0,100,134.324,100,299.987C100,465.65,234.324,600,399.987,600
		C565.65,600,700,465.65,700,299.987C700,134.324,565.65,0,399.987,0z M462.438,464.939c-15.441,6.096-27.733,10.718-36.953,13.918
		c-9.193,3.199-19.886,4.8-32.05,4.8c-18.692,0-33.245-4.571-43.606-13.689c-10.362-9.117-15.518-20.673-15.518-34.717
		c0-5.461,0.381-11.048,1.143-16.736c0.787-5.689,2.032-12.089,3.733-19.276l19.327-68.267c1.702-6.553,3.175-12.774,4.343-18.565
		c1.168-5.841,1.727-11.2,1.727-16.076c0-8.686-1.803-14.781-5.384-18.209c-3.632-3.429-10.464-5.105-20.648-5.105
		c-4.978,0-10.108,0.737-15.365,2.286c-5.207,1.6-9.727,3.047-13.435,4.47l5.104-21.029c12.648-5.155,24.762-9.575,36.318-13.231
		c11.555-3.708,22.476-5.537,32.762-5.537c18.565,0,32.889,4.521,42.972,13.46c10.031,8.965,15.086,20.622,15.086,34.946
		c0,2.972-0.356,8.203-1.042,15.67c-0.686,7.492-1.98,14.324-3.86,20.597l-19.225,68.063c-1.575,5.46-2.973,11.708-4.242,18.692
		c-1.244,6.984-1.854,12.317-1.854,15.898c0,9.041,2.006,15.213,6.07,18.488c4.012,3.276,11.047,4.928,21.003,4.928
		c4.698,0,9.955-0.839,15.898-2.464c5.892-1.625,10.158-3.073,12.851-4.317L462.438,464.939z M459.035,188.673
		c-8.965,8.33-19.759,12.496-32.381,12.496c-12.598,0-23.467-4.166-32.508-12.496c-8.99-8.33-13.537-18.463-13.537-30.298
		c0-11.81,4.572-21.968,13.537-30.375c9.042-8.432,19.911-12.622,32.508-12.622c12.622,0,23.441,4.19,32.381,12.622
		c8.965,8.406,13.46,18.565,13.46,30.375C472.495,170.235,468,180.343,459.035,188.673z"/>
</g>
</svg>
