<?xml version="1.0" encoding="utf-8"?>
<!-- Generator: Adobe Illustrator 15.0.0, SVG Export Plug-In . SVG Version: 6.00 Build 0)  -->
<!DOCTYPE svg PUBLIC "-//W3C//DTD SVG 1.1//EN" "http://www.w3.org/Graphics/SVG/1.1/DTD/svg11.dtd">
<svg version="1.1" id="Layer_1" xmlns="http://www.w3.org/2000/svg" xmlns:xlink="http://www.w3.org/1999/xlink" x="0px" y="0px"
	 width="300px" height="300px" viewBox="0 0 300 300" enable-background="new 0 0 300 300" xml:space="preserve">
<rect x="39.215" y="27.784" fill="#FFFFFF" width="63.285" height="83.716"/>
<rect x="199.155" y="117.831" transform="matrix(0.6723 -0.7403 0.7403 0.6723 -74.726 219.3445)" fill="#FFFFFF" width="22.47" height="152.49"/>
<path fill="#E9B607" d="M287.305,243.005c-0.136-1.772-0.928-3.476-2.227-4.747L172.835,126.015
	c4.416-10.403,6.747-21.669,6.747-33.312c0-22.754-8.875-44.163-24.938-60.266C138.558,16.366,117.164,7.5,94.397,7.5
	c-22.778,0-44.135,8.869-60.247,24.95C0.907,65.675,0.9,119.716,34.145,152.938c16.111,16.115,37.475,24.99,60.241,24.99
	c11.646,0,22.884-2.35,33.312-6.771l36.874,36.902c1.533,1.515,3.557,2.318,5.74,2.248l20.095-0.705l-0.656,20.145
	c-0.062,2.125,0.705,4.193,2.245,5.706c1.484,1.512,3.568,2.334,5.686,2.248l20.168-0.688l-0.724,20.122
	c-0.063,2.128,0.754,4.199,2.237,5.712c1.535,1.512,3.322,2.325,5.74,2.252l20.119-0.685l-0.674,20.126
	c-0.117,2.232,0.822,4.379,2.418,5.902c1.473,1.34,3.309,2.061,5.245,2.061c0.278,0,0.563-0.012,0.847-0.037l30.852-3.426
	c4.169-0.455,7.205-4.175,6.847-8.354L287.305,243.005z M84.106,82.415c-9.476,9.466-24.796,9.466-34.252,0
	c-9.47-9.469-9.47-24.786,0-34.246c9.456-9.46,24.771-9.469,34.252-0.003C93.563,57.625,93.557,72.952,84.106,82.415z
	 M260.971,245.575c-1.127,1.126-2.636,1.688-4.102,1.688c-1.467,0-2.977-0.563-4.102-1.688l-95.5-95.529
	c2.658-2.867,5.076-5.885,7.272-9.058l96.429,96.411C263.221,239.65,263.221,243.324,260.971,245.575z"/>
</svg>
